<svg xmlns="http://www.w3.org/2000/svg" viewBox="0 0 740.5 210"><defs><style>.cls-1{fill:#06f;}.cls-2{fill:#01052f;}</style></defs><title>SBM_Hovedlogo_Positiv_RGB</title><g id="Layer_2" data-name="Layer 2"><g id="Test"><polygon class="cls-1" points="105 50.72 70 101.43 0 101.43 70 0 105 50.72"/><polygon class="cls-1" points="210 101.43 140 101.43 105 50.72 140 0 210 101.43"/><polygon class="cls-1" points="210 108.57 140 210 109.34 165.58 148.69 108.57 210 108.57"/><polygon class="cls-1" points="70 210 140 108.57 0 108.57 70 210"/><path class="cls-2" d="M273.14,94c-14.31,0-24.36-8.43-24.44-21.29h9.45c.51,8.26,6.22,13.37,15.24,13.37,7.33,0,11.84-3.4,11.84-9,0-7.24-7.66-8.26-15-10.14-8.68-2.21-19.84-5.11-19.84-17.71,0-10.73,8.35-17.71,21.21-17.71s22.05,7,22.14,17.63H284c-.34-6.14-5.11-9.46-12.77-9.46-7.24,0-11.67,3.24-11.67,8.69,0,6.81,6.81,8.77,13.71,10.3,7.66,1.71,21.38,3.84,21.38,17.55C294.69,87,286.17,94,273.14,94Z"/><path class="cls-2" d="M345.36,70.18c0,13.71-8,22.65-19.59,22.65-6.13,0-11.16-2.38-13.88-6.9v22.91h-9V49.06h8.77V56.9c2.81-5.37,8-8.69,15.16-8.69C338,48.21,345.36,56.9,345.36,70.18Zm-9,.43c0-8.61-4.86-14.31-12.35-14.31S311.55,62,311.55,70.61,316.4,85,324,85C331.39,85,336.33,79.29,336.33,70.61Z"/><path class="cls-2" d="M388.32,62.26V92.49h-8.6V85.93c-3.49,5.62-8.94,7.5-14.22,7.5-8.94,0-14.14-5.28-14.14-13,0-9.88,8.26-12,13.54-12.86l9.28-1.45c1.88-.25,5.45-.93,5.45-5.19,0-3.83-3.06-5.45-8-5.45-6.13,0-9.62,2.55-10.56,7.32h-8.52c1-8.86,8.09-14.56,19.5-14.56C382.1,48.21,388.32,52.64,388.32,62.26ZM379.38,74.1V71a48.66,48.66,0,0,1-6.05,1.36l-4.94.77c-2.21.34-8.17,1.27-8.17,6.89,0,3.75,2.64,5.88,7.32,5.88C374.44,85.85,379.38,81.17,379.38,74.1Z"/><path class="cls-2" d="M422.13,57.32h-1.7c-8.44,0-12.78,4.43-12.78,13.54V92.49h-9V49.06h8.95V56c2.64-5.88,7.24-7.33,12.09-7.33h2.47Z"/><path class="cls-2" d="M464.2,73.33H432.52c0,8.09,4.94,12.6,12.69,12.6,5.36,0,9.11-2.3,10.64-6.21h7.92c-2.13,8.17-9.37,13.71-19.24,13.71-12.35,0-20.44-8.69-20.44-22.31,0-13.88,8.43-22.91,20.78-22.91,11.75,0,19.33,8.26,19.33,21.37ZM444.7,55.7c-6.73,0-11.5,4.18-12.1,11.07h23C455.6,60.05,451.51,55.7,444.7,55.7Z"/><path class="cls-2" d="M514.44,70.69c0,13.88-7.66,22.74-19.16,22.74-7.32,0-12.26-3.41-14.56-8v7.07H472V31.94h9V56.55c2.47-5.36,8-8.34,14.73-8.34C507.12,48.21,514.44,57.07,514.44,70.69Zm-9,.34c0-8.77-4.85-14.73-12.26-14.73s-12.52,6-12.52,14.73,5.11,14.73,12.52,14.73S505.41,79.89,505.41,71Z"/><path class="cls-2" d="M557.4,62.26V92.49h-8.6V85.93c-3.49,5.62-8.94,7.5-14.22,7.5-8.94,0-14.13-5.28-14.13-13,0-9.88,8.26-12,13.54-12.86l9.28-1.45c1.87-.25,5.45-.93,5.45-5.19,0-3.83-3.07-5.45-8-5.45-6.13,0-9.62,2.55-10.56,7.32h-8.51c1-8.86,8.09-14.56,19.5-14.56C551.19,48.21,557.4,52.64,557.4,62.26ZM548.46,74.1V71a48.92,48.92,0,0,1-6,1.36l-4.94.77c-2.22.34-8.18,1.27-8.18,6.89,0,3.75,2.64,5.88,7.33,5.88C543.52,85.85,548.46,81.17,548.46,74.1Z"/><path class="cls-2" d="M605.18,64.39v28.1h-8.94V65.33c0-5.63-3.32-9.12-8.6-9.12-6.73,0-10.9,5-10.9,13V92.49h-9V49.06h9v6.47c3-5.11,6.89-7.32,13.28-7.32C599.73,48.21,605.18,53.74,605.18,64.39Z"/><path class="cls-2" d="M644.78,92.49,631.07,74.18l-6.56,7V92.49h-9V31.94h9V69.58l18.06-20.52h11.92L637,67.8l18.48,24.69Z"/><path class="cls-2" d="M695.28,73.33H663.6c0,8.09,4.94,12.6,12.69,12.6,5.37,0,9.11-2.3,10.64-6.21h7.93c-2.13,8.17-9.37,13.71-19.25,13.71-12.35,0-20.44-8.69-20.44-22.31,0-13.88,8.43-22.91,20.78-22.91,11.75,0,19.33,8.26,19.33,21.37ZM675.78,55.7c-6.73,0-11.5,4.18-12.09,11.07h23C686.68,60.05,682.59,55.7,675.78,55.7Z"/><path class="cls-2" d="M740.5,64.39v28.1h-8.94V65.33c0-5.63-3.32-9.12-8.6-9.12-6.73,0-10.9,5-10.9,13V92.49h-9V49.06h9v6.47c3-5.11,6.89-7.32,13.28-7.32C735.05,48.21,740.5,53.74,740.5,64.39Z"/><path class="cls-2" d="M311.89,182.89H303V135.54l-17.46,47.35h-8.86l-17.37-47.35v47.35h-8.6V123.28H263.6l17.71,48.45L299,123.28h12.86Z"/><path class="cls-2" d="M363.07,161.26c0,13.63-8.09,22.57-21.29,22.57a23.88,23.88,0,0,1-9.2-1.71l-3.32,4.77-7-4.85,3.4-4.94c-3.32-3.92-5.19-9.37-5.19-15.84,0-13.54,8.17-22.65,21.29-22.65a22.7,22.7,0,0,1,9.28,1.79l4-5.8,6.9,4.94-4.09,5.88C361.19,149.42,363.07,154.79,363.07,161.26Zm-33.55,0a18.37,18.37,0,0,0,2,8.77l15.33-22.31a13.27,13.27,0,0,0-5.11-.94C333.77,146.78,329.52,152.57,329.52,161.26Zm24.52,0a18.48,18.48,0,0,0-2-8.77l-15.41,22.14a13,13,0,0,0,5.28,1C349.78,175.65,354,170,354,161.26Z"/><path class="cls-2" d="M394.32,147.72h-1.7c-8.43,0-12.77,4.43-12.77,13.54v21.63h-9V139.46h8.94v6.9c2.64-5.88,7.24-7.33,12.09-7.33h2.47Z"/><path class="cls-2" d="M436.39,163.73H404.71c0,8.09,4.94,12.6,12.69,12.6,5.36,0,9.11-2.3,10.64-6.21H436c-2.12,8.17-9.36,13.71-19.24,13.71-12.35,0-20.44-8.69-20.44-22.31,0-13.89,8.43-22.91,20.78-22.91,11.75,0,19.33,8.26,19.33,21.37Zm-19.5-17.63c-6.73,0-11.5,4.17-12.09,11.07h23C427.79,150.44,423.7,146.1,416.89,146.1Z"/></g></g></svg>